<svg xmlns="http://www.w3.org/2000/svg" xmlns:xlink="http://www.w3.org/1999/xlink" version="1.1" width="64" height="64" viewBox="0 0 256 256" xml:space="preserve">

<defs>
</defs>
<g style="stroke: none; stroke-width: 0; stroke-dasharray: none; stroke-linecap: butt; stroke-linejoin: miter; stroke-miterlimit: 10; fill: none; fill-rule: nonzero; opacity: 1;" transform="translate(1.4065934065934016 1.4065934065934016) scale(2.81 2.81)" >
	<path d="M 2 33.045 v 23.911 c 0 3.565 2.89 6.455 6.455 6.455 h 73.09 c 3.565 0 6.455 -2.89 6.455 -6.455 V 33.045 c 0 -3.565 -2.89 -6.455 -6.455 -6.455 H 8.455 C 4.89 26.589 2 29.48 2 33.045 z" style="stroke: none; stroke-width: 1; stroke-dasharray: none; stroke-linecap: butt; stroke-linejoin: miter; stroke-miterlimit: 10; fill: rgb(240,240,240); fill-rule: nonzero; opacity: 1;" transform=" matrix(1 0 0 1 0 0) " stroke-linecap="round" />
	<path d="M 81.545 65.41 H 8.455 C 3.793 65.41 0 61.617 0 56.955 V 33.044 c 0 -4.662 3.793 -8.455 8.455 -8.455 h 73.09 c 4.662 0 8.455 3.793 8.455 8.455 v 23.911 C 90 61.617 86.207 65.41 81.545 65.41 z M 8.455 28.589 C 5.999 28.589 4 30.588 4 33.044 v 23.911 c 0 2.456 1.999 4.455 4.455 4.455 h 73.09 c 2.456 0 4.455 -1.999 4.455 -4.455 V 33.044 c 0 -2.457 -1.999 -4.455 -4.455 -4.455 H 8.455 z" style="stroke: none; stroke-width: 1; stroke-dasharray: none; stroke-linecap: butt; stroke-linejoin: miter; stroke-miterlimit: 10; fill: rgb(0,48,135); fill-rule: nonzero; opacity: 1;" transform=" matrix(1 0 0 1 0 0) " stroke-linecap="round" />
	<path d="M 15.07 36.247 c -0.189 0 -0.349 0.137 -0.379 0.324 l -2.186 13.866 c -0.03 0.194 0.102 0.375 0.296 0.406 c 0.018 0.003 0.037 0.004 0.055 0.004 h 2.593 c 0.189 0 0.349 -0.137 0.379 -0.324 l 0.642 -4.072 c 0.029 -0.186 0.19 -0.324 0.379 -0.324 h 2.357 c 2.754 0 5.093 -2.01 5.52 -4.733 c 0.431 -2.746 -1.715 -5.141 -4.756 -5.147 H 15.07 z M 17.59 39.343 h 1.886 c 1.553 0 2.058 0.916 1.899 1.929 c -0.16 1.015 -0.945 1.763 -2.447 1.763 h -1.92 L 17.59 39.343 z M 29.999 40.285 c -0.655 0.002 -1.408 0.137 -2.254 0.489 c -1.94 0.809 -2.872 2.48 -3.267 3.698 c 0 0 -1.259 3.717 1.586 5.759 c 0 0 2.639 1.966 5.609 -0.121 l -0.051 0.326 c -0.03 0.194 0.102 0.375 0.296 0.406 c 0.018 0.003 0.036 0.004 0.054 0.004 h 2.461 c 0.189 0 0.349 -0.137 0.379 -0.324 l 1.497 -9.495 c 0.031 -0.194 -0.101 -0.376 -0.295 -0.406 c -0.018 -0.003 -0.037 -0.004 -0.055 -0.004 h -2.461 c -0.189 0 -0.35 0.137 -0.379 0.324 l -0.08 0.511 C 33.038 41.452 31.963 40.278 29.999 40.285 L 29.999 40.285 z M 30.079 43.284 c 0.283 0 0.541 0.039 0.773 0.114 c 1.062 0.341 1.664 1.361 1.49 2.467 c -0.215 1.362 -1.332 2.364 -2.764 2.364 c -0.282 0 -0.541 -0.039 -0.773 -0.113 c -1.062 -0.341 -1.668 -1.361 -1.493 -2.467 C 27.527 44.287 28.647 43.284 30.079 43.284 L 30.079 43.284 z" style="stroke: none; stroke-width: 1; stroke-dasharray: none; stroke-linecap: butt; stroke-linejoin: miter; stroke-miterlimit: 10; fill: rgb(0,48,135); fill-rule: nonzero; opacity: 1;" transform=" matrix(1 0 0 1 0 0) " stroke-linecap="round" />
	<path d="M 50.516 36.247 c -0.189 0 -0.349 0.137 -0.379 0.324 l -2.186 13.866 c -0.03 0.194 0.102 0.375 0.296 0.406 c 0.018 0.003 0.037 0.004 0.055 0.004 h 2.593 c 0.189 0 0.349 -0.137 0.379 -0.324 l 0.642 -4.072 c 0.029 -0.186 0.19 -0.324 0.379 -0.324 h 2.357 c 2.754 0 5.092 -2.01 5.519 -4.733 c 0.431 -2.746 -1.714 -5.141 -4.755 -5.147 H 50.516 z M 53.037 39.343 h 1.886 c 1.553 0 2.058 0.916 1.899 1.929 c -0.16 1.015 -0.945 1.763 -2.447 1.763 h -1.92 L 53.037 39.343 z M 65.445 40.285 c -0.655 0.002 -1.408 0.137 -2.254 0.489 c -1.94 0.809 -2.872 2.48 -3.267 3.698 c 0 0 -1.259 3.717 1.586 5.759 c 0 0 2.638 1.966 5.609 -0.121 l -0.051 0.326 c -0.03 0.194 0.102 0.375 0.296 0.406 c 0.018 0.003 0.037 0.004 0.055 0.004 h 2.461 c 0.189 0 0.349 -0.137 0.379 -0.324 l 1.498 -9.495 c 0.031 -0.194 -0.101 -0.376 -0.295 -0.406 c -0.018 -0.003 -0.037 -0.004 -0.056 -0.004 h -2.461 c -0.189 0 -0.35 0.137 -0.379 0.324 l -0.08 0.511 C 68.484 41.452 67.409 40.278 65.445 40.285 L 65.445 40.285 z M 65.525 43.284 c 0.283 0 0.541 0.039 0.773 0.114 c 1.062 0.341 1.664 1.361 1.49 2.467 c -0.215 1.362 -1.332 2.364 -2.764 2.364 c -0.282 0 -0.541 -0.039 -0.773 -0.113 c -1.062 -0.341 -1.668 -1.361 -1.493 -2.467 C 62.973 44.287 64.093 43.284 65.525 43.284 L 65.525 43.284 z" style="stroke: none; stroke-width: 1; stroke-dasharray: none; stroke-linecap: butt; stroke-linejoin: miter; stroke-miterlimit: 10; fill: rgb(0,112,224); fill-rule: nonzero; opacity: 1;" transform=" matrix(1 0 0 1 0 0) " stroke-linecap="round" />
	<path d="M 37.477 40.617 c -0.195 0 -0.334 0.191 -0.274 0.376 l 2.699 8.374 l -2.44 3.946 c -0.118 0.192 0.019 0.439 0.244 0.439 h 2.884 c 0.168 0 0.323 -0.088 0.41 -0.231 l 7.537 -12.468 c 0.116 -0.192 -0.022 -0.437 -0.246 -0.437 h -2.884 c -0.169 0 -0.326 0.09 -0.412 0.235 l -2.967 5.009 l -1.506 -4.971 c -0.049 -0.162 -0.198 -0.273 -0.367 -0.273 L 37.477 40.617 z" style="stroke: none; stroke-width: 1; stroke-dasharray: none; stroke-linecap: butt; stroke-linejoin: miter; stroke-miterlimit: 10; fill: rgb(0,48,135); fill-rule: nonzero; opacity: 1;" transform=" matrix(1 0 0 1 0 0) " stroke-linecap="round" />
	<path d="M 74.553 36.247 c -0.189 0 -0.349 0.137 -0.379 0.324 l -2.187 13.865 c -0.031 0.194 0.101 0.376 0.295 0.406 c 0.018 0.003 0.037 0.004 0.056 0.004 h 2.593 c 0.189 0 0.349 -0.137 0.379 -0.324 l 2.186 -13.866 c 0.03 -0.194 -0.102 -0.375 -0.296 -0.406 c -0.018 -0.003 -0.036 -0.004 -0.054 -0.004 H 74.553 z" style="stroke: none; stroke-width: 1; stroke-dasharray: none; stroke-linecap: butt; stroke-linejoin: miter; stroke-miterlimit: 10; fill: rgb(0,112,224); fill-rule: nonzero; opacity: 1;" transform=" matrix(1 0 0 1 0 0) " stroke-linecap="round" />
</g>
</svg>